<?xml version="1.0" standalone="no"?><!DOCTYPE svg PUBLIC "-//W3C//DTD SVG 1.1//EN" "http://www.w3.org/Graphics/SVG/1.1/DTD/svg11.dtd"><svg class="icon" width="200px" height="200.00px" viewBox="0 0 1024 1024" version="1.1" xmlns="http://www.w3.org/2000/svg"><path fill="#1296db" d="M512 0a512 512 0 1 0 512 512A512 512 0 0 0 512 0z m358.08 195.2a503.36 503.36 0 0 1-128 57.28 409.28 409.28 0 0 0-146.88-211.52 478.08 478.08 0 0 1 274.88 154.24zM528 315.52a853.44 853.44 0 0 0 192-23.68 815.68 815.68 0 0 1 27.52 204.16H528z m0-32V39.68c39.68 16.96 129.92 71.36 181.44 221.44a819.2 819.2 0 0 1-181.44 22.4z m-32 0a810.56 810.56 0 0 1-178.56-21.44c49.28-156.8 139.2-208.32 178.56-224z m0 32v180.48H283.84a876.48 876.48 0 0 1 24.64-202.88 848 848 0 0 0 187.52 22.72zM251.52 496h-217.6a475.84 475.84 0 0 1 99.2-275.84 504 504 0 0 0 144 64 903.68 903.68 0 0 0-25.6 211.84z m0 32a894.08 894.08 0 0 0 24.96 210.56 516.48 516.48 0 0 0-143.68 64 475.84 475.84 0 0 1-98.88-275.2z m32 0h212.48v179.2a856.32 856.32 0 0 0-188.8 23.36 866.56 866.56 0 0 1-23.68-202.56z m212.48 211.2v246.08c-39.68-15.04-130.56-66.56-179.84-224a818.88 818.88 0 0 1 179.84-22.08z m32 0a805.44 805.44 0 0 1 185.28 23.04c-50.56 158.08-144.96 208.96-185.28 224z m0-32v-179.2h218.56a839.36 839.36 0 0 1-24.32 203.2 843.2 843.2 0 0 0-194.24-24.32z m250.88-178.88h211.2a475.84 475.84 0 0 1-98.56 275.2 494.08 494.08 0 0 0-137.92-64 871.36 871.36 0 0 0 25.28-211.52z m0-32a858.24 858.24 0 0 0-28.16-212.8 515.84 515.84 0 0 0 140.16-64 475.84 475.84 0 0 1 99.52 276.16z m-352-454.72a399.36 399.36 0 0 0-140.8 212.16A493.44 493.44 0 0 1 153.92 195.2a478.08 478.08 0 0 1 272.64-153.92zM153.28 828.16a508.48 508.48 0 0 1 131.84-58.24 396.8 396.8 0 0 0 140.48 212.8 480 480 0 0 1-272.32-154.56z m448 153.92a394.56 394.56 0 0 0 142.72-211.2 486.4 486.4 0 0 1 128 57.28 480 480 0 0 1-270.08 153.92z"  /></svg>